<svg width="16" height="16" viewBox="0 0 16 16" fill="none" xmlns="http://www.w3.org/2000/svg">
<path d="M5.99996 10C5.86811 10 5.73921 10.0391 5.62958 10.1124C5.51995 10.1856 5.4345 10.2898 5.38404 10.4116C5.33358 10.5334 5.32038 10.6674 5.3461 10.7968C5.37183 10.9261 5.43532 11.0449 5.52856 11.1381C5.62179 11.2313 5.74058 11.2948 5.8699 11.3206C5.99922 11.3463 6.13326 11.3331 6.25508 11.2826C6.3769 11.2322 6.48102 11.1467 6.55427 11.0371C6.62753 10.9275 6.66663 10.7986 6.66663 10.6667C6.66663 10.4899 6.59639 10.3203 6.47136 10.1953C6.34634 10.0703 6.17677 10 5.99996 10ZM1.33329 9.33337C1.15648 9.33337 0.986912 9.40361 0.861888 9.52864C0.736864 9.65366 0.666626 9.82323 0.666626 10V11.3334C0.666626 11.5102 0.736864 11.6798 0.861888 11.8048C0.986912 11.9298 1.15648 12 1.33329 12C1.5101 12 1.67967 11.9298 1.8047 11.8048C1.92972 11.6798 1.99996 11.5102 1.99996 11.3334V10C1.99996 9.82323 1.92972 9.65366 1.8047 9.52864C1.67967 9.40361 1.5101 9.33337 1.33329 9.33337ZM14.6666 9.33337C14.4898 9.33337 14.3202 9.40361 14.1952 9.52864C14.0702 9.65366 14 9.82323 14 10V11.3334C14 11.5102 14.0702 11.6798 14.1952 11.8048C14.3202 11.9298 14.4898 12 14.6666 12C14.8434 12 15.013 11.9298 15.138 11.8048C15.2631 11.6798 15.3333 11.5102 15.3333 11.3334V10C15.3333 9.82323 15.2631 9.65366 15.138 9.52864C15.013 9.40361 14.8434 9.33337 14.6666 9.33337ZM11.3333 4.66671H8.66663V3.81337C8.86814 3.69703 9.03571 3.52998 9.15266 3.32882C9.26961 3.12766 9.33189 2.89939 9.33329 2.66671C9.33329 2.31309 9.19282 1.97395 8.94277 1.7239C8.69272 1.47385 8.35358 1.33337 7.99996 1.33337C7.64634 1.33337 7.3072 1.47385 7.05715 1.7239C6.8071 1.97395 6.66663 2.31309 6.66663 2.66671C6.66803 2.89939 6.7303 3.12766 6.84726 3.32882C6.96421 3.52998 7.13178 3.69703 7.33329 3.81337V4.66671H4.66663C4.13619 4.66671 3.62749 4.87742 3.25241 5.25249C2.87734 5.62757 2.66663 6.13627 2.66663 6.66671V12.6667C2.66663 13.1971 2.87734 13.7058 3.25241 14.0809C3.62749 14.456 4.13619 14.6667 4.66663 14.6667H11.3333C11.8637 14.6667 12.3724 14.456 12.7475 14.0809C13.1226 13.7058 13.3333 13.1971 13.3333 12.6667V6.66671C13.3333 6.13627 13.1226 5.62757 12.7475 5.25249C12.3724 4.87742 11.8637 4.66671 11.3333 4.66671ZM9.14663 6.00004L8.81329 7.33337H7.18663L6.85329 6.00004H9.14663ZM12 12.6667C12 12.8435 11.9297 13.0131 11.8047 13.1381C11.6797 13.2631 11.5101 13.3334 11.3333 13.3334H4.66663C4.48982 13.3334 4.32025 13.2631 4.19522 13.1381C4.0702 13.0131 3.99996 12.8435 3.99996 12.6667V6.66671C3.99996 6.4899 4.0702 6.32033 4.19522 6.1953C4.32025 6.07028 4.48982 6.00004 4.66663 6.00004H5.47996L5.99996 8.16004C6.03646 8.30796 6.12252 8.43891 6.24382 8.5311C6.36512 8.62328 6.51434 8.67114 6.66663 8.66671H9.33329C9.48558 8.67114 9.6348 8.62328 9.7561 8.5311C9.8774 8.43891 9.96346 8.30796 9.99996 8.16004L10.52 6.00004H11.3333C11.5101 6.00004 11.6797 6.07028 11.8047 6.1953C11.9297 6.32033 12 6.4899 12 6.66671V12.6667ZM9.99996 10C9.86811 10 9.73921 10.0391 9.62958 10.1124C9.51995 10.1856 9.4345 10.2898 9.38404 10.4116C9.33358 10.5334 9.32038 10.6674 9.3461 10.7968C9.37183 10.9261 9.43532 11.0449 9.52856 11.1381C9.62179 11.2313 9.74058 11.2948 9.8699 11.3206C9.99922 11.3463 10.1333 11.3331 10.2551 11.2826C10.3769 11.2322 10.481 11.1467 10.5543 11.0371C10.6275 10.9275 10.6666 10.7986 10.6666 10.6667C10.6666 10.4899 10.5964 10.3203 10.4714 10.1953C10.3463 10.0703 10.1768 10 9.99996 10Z" fill="black"/>
</svg>
