<svg width="16" height="16" viewBox="0 0 16 16" fill="none" xmlns="http://www.w3.org/2000/svg">
<path d="M14.98 12.5467L14.3133 9.97339L12.2133 2.24673C12.168 2.07629 12.0569 1.93078 11.9044 1.84206C11.752 1.75334 11.5706 1.72865 11.4 1.77339L8.82 2.44006C8.75843 2.37182 8.68341 2.31706 8.59966 2.2792C8.51591 2.24134 8.42524 2.2212 8.33333 2.22006H1.66667C1.48986 2.22006 1.32029 2.2903 1.19526 2.41532C1.07024 2.54035 1 2.70992 1 2.88673V13.5534C1 13.7302 1.07024 13.8998 1.19526 14.0248C1.32029 14.1498 1.48986 14.2201 1.66667 14.2201H8.33333C8.51014 14.2201 8.67971 14.1498 8.80474 14.0248C8.92976 13.8998 9 13.7302 9 13.5534V8.22006L10.4667 13.7001C10.5057 13.8455 10.5929 13.9734 10.7139 14.063C10.835 14.1526 10.9828 14.1986 11.1333 14.1934C11.1909 14.1999 11.2491 14.1999 11.3067 14.1934L14.5267 13.3334C14.6118 13.3106 14.6916 13.2712 14.7614 13.2174C14.8312 13.1637 14.8896 13.0966 14.9333 13.0201C15.0037 12.8726 15.0202 12.7051 14.98 12.5467ZM4.31333 12.9134H2.31333V11.5801H4.31333V12.9134ZM4.31333 10.2467H2.31333V6.24673H4.31333V10.2467ZM4.31333 4.91339H2.31333V3.58006H4.31333V4.91339ZM7.64667 12.9134H5.64667V11.5801H7.64667V12.9134ZM7.64667 10.2467H5.64667V6.24673H7.64667V10.2467ZM7.64667 4.91339H5.64667V3.58006H7.64667V4.91339ZM9.14667 3.75339L11.08 3.23339L11.4267 4.52006L9.49333 5.04006L9.14667 3.75339ZM10.8733 10.1934L9.84 6.32673L11.7733 5.80673L12.8067 9.67339L10.8733 10.1934ZM11.54 12.7667L11.1933 11.4801L13.1267 10.9601L13.4733 12.2467L11.54 12.7667Z" fill="black"/>
</svg>
