<svg width="17" height="16" viewBox="0 0 17 16" fill="none" xmlns="http://www.w3.org/2000/svg">
<g id="uil-google">
<path id="Vector" d="M15.5681 6.66928C15.5404 6.51554 15.4595 6.37643 15.3396 6.27624C15.2197 6.17605 15.0685 6.12114 14.9122 6.1211H8.63327C8.54572 6.12108 8.45902 6.13831 8.37813 6.1718C8.29723 6.2053 8.22373 6.2544 8.16182 6.31631C8.09991 6.37822 8.0508 6.45173 8.01731 6.53262C7.98381 6.61351 7.96658 6.70022 7.96661 6.78777V9.36654C7.96658 9.4541 7.98381 9.5408 8.01731 9.62169C8.0508 9.70259 8.09991 9.77609 8.16182 9.838C8.22373 9.89991 8.29723 9.94901 8.37813 9.98251C8.45902 10.016 8.54572 10.0332 8.63327 10.0332H11.2749C11.0867 10.3509 10.8286 10.6216 10.5203 10.8249C9.9569 11.1821 9.30021 11.3643 8.63327 11.3483C7.94159 11.3404 7.26999 11.1147 6.71393 10.7033C6.15786 10.2918 5.74562 9.71558 5.53578 9.05645L5.53559 9.05534C5.30207 8.37094 5.30207 7.62842 5.53559 6.94401L5.53575 6.94291C5.74573 6.28391 6.15804 5.70784 6.7141 5.29653C7.27015 4.88523 7.94168 4.6596 8.63327 4.6517C9.01755 4.64288 9.39979 4.71006 9.75803 4.84938C10.1163 4.9887 10.4435 5.19742 10.7208 5.46355C10.8468 5.58392 11.0149 5.65023 11.1891 5.64828C11.3633 5.64634 11.5299 5.57629 11.6531 5.45314L13.5652 3.54102C13.6286 3.47776 13.6785 3.40237 13.7121 3.31937C13.7456 3.23637 13.7621 3.14745 13.7605 3.05794C13.7589 2.96842 13.7393 2.88014 13.7029 2.79838C13.6664 2.71661 13.6138 2.64303 13.5483 2.58204C12.2177 1.33451 10.4571 0.648417 8.63327 0.666676C7.27323 0.662652 5.93911 1.03868 4.78136 1.75237C3.62361 2.46605 2.68828 3.489 2.08083 4.70586L2.07985 4.70704C1.56487 5.72821 1.29769 6.85634 1.29994 8.00001C1.30156 9.14324 1.56855 10.2705 2.07989 11.293L2.08087 11.2942C2.68831 12.511 3.62363 13.534 4.78138 14.2476C5.93912 14.9613 7.27324 15.3374 8.63327 15.3333C10.4235 15.3787 12.1633 14.7378 13.4964 13.542L13.4974 13.5411C14.22 12.846 14.7893 12.0073 15.1686 11.0792C15.5479 10.1511 15.7289 9.15392 15.7 8.15171C15.7003 7.65463 15.6562 7.15851 15.5681 6.66928ZM8.63327 2.00001C9.88065 1.98787 11.0986 2.37904 12.1056 3.11524L11.1365 4.08401C10.4017 3.57538 9.52689 3.30781 8.63327 3.31837C7.81742 3.32257 7.01743 3.5441 6.31563 3.96016C5.61383 4.37622 5.03558 4.97179 4.6404 5.68556L3.92759 5.13306L3.53759 4.83062C4.07411 3.96251 4.82425 3.24648 5.71637 2.75092C6.60848 2.25535 7.61276 1.99682 8.63327 2.00001ZM2.9529 9.93556C2.52669 8.68039 2.52669 7.31963 2.9529 6.06446L4.14105 6.98569C3.98914 7.65316 3.98914 8.34622 4.14105 9.01369L2.9529 9.93556ZM8.63327 14C7.61275 14.0032 6.60845 13.7446 5.71633 13.249C4.8242 12.7535 4.07406 12.0374 3.53754 11.1693L3.78981 10.9736L4.6404 10.3138C5.03541 11.0278 5.6136 11.6235 6.31542 12.0397C7.01725 12.4559 7.81733 12.6775 8.63327 12.6817C9.39704 12.6906 10.1521 12.5191 10.8371 12.1811L11.9649 13.0567C10.973 13.6958 9.81295 14.0242 8.63327 14ZM12.9839 12.1595L12.8619 12.0648L11.9436 11.352C12.4251 10.8318 12.7487 10.1855 12.8767 9.48832C12.8946 9.39209 12.8911 9.2931 12.8664 9.19838C12.8418 9.10366 12.7965 9.01554 12.7339 8.94028C12.6714 8.86502 12.593 8.80447 12.5043 8.76292C12.4157 8.72138 12.319 8.69987 12.2211 8.69991H9.29994V7.45444H14.3325C14.3553 7.6849 14.3667 7.91798 14.3667 8.1517C14.4057 9.61093 13.9144 11.0348 12.9839 12.1595Z" fill="black"/>
</g>
</svg>
