<svg width="146" height="24" viewBox="0 0 146 24" fill="none" xmlns="http://www.w3.org/2000/svg">
<rect x="9" y="9" width="6" height="6" stroke="#F97316" stroke-width="2"/>
<path d="M15 8V9H16H19C21.2091 9 23 7.20914 23 5C23 2.79086 21.2091 1 19 1C16.7909 1 15 2.79086 15 5V8Z" stroke="#F97316" stroke-width="2"/>
<path d="M15 16V15H16H19C21.2091 15 23 16.7909 23 19C23 21.2091 21.2091 23 19 23C16.7909 23 15 21.2091 15 19V16Z" stroke="#F97316" stroke-width="2"/>
<path d="M9 16V15H8H5C2.79086 15 1 16.7909 1 19C1 21.2091 2.79086 23 5 23C7.20914 23 9 21.2091 9 19V16Z" stroke="#F97316" stroke-width="2"/>
<path d="M9 8V9H8H5C2.79086 9 1 7.20914 1 5C1 2.79086 2.79086 1 5 1C7.20914 1 9 2.79086 9 5V8Z" stroke="#F97316" stroke-width="2"/>
<path d="M34.1946 4.89773V19.4432H32V4.89773H34.1946Z" fill="black"/>
<path d="M39.2438 12.9659V19.4432H37.1202V8.53409H39.1585V10.3097H39.2935C39.5444 9.73201 39.9374 9.26799 40.4724 8.91761C41.0122 8.56724 41.6917 8.39205 42.5108 8.39205C43.2542 8.39205 43.9052 8.5483 44.4639 8.8608C45.0226 9.16856 45.4559 9.62784 45.7636 10.2386C46.0714 10.8494 46.2253 11.6046 46.2253 12.5043V19.4432H44.1017V12.7599C44.1017 11.9692 43.8957 11.3513 43.4838 10.9063C43.0719 10.4564 42.5061 10.2315 41.7864 10.2315C41.2939 10.2315 40.856 10.3381 40.4724 10.5511C40.0937 10.7642 39.793 11.0767 39.5705 11.4886C39.3527 11.8958 39.2438 12.3883 39.2438 12.9659Z" fill="black"/>
<path d="M54.0656 8.53409V10.2386H48.1068V8.53409H54.0656ZM49.7048 5.92046H51.8284V16.2401C51.8284 16.652 51.89 16.9621 52.0131 17.1705C52.1362 17.3741 52.2948 17.5137 52.4889 17.5895C52.6878 17.6605 52.9032 17.696 53.1352 17.696C53.3057 17.696 53.4548 17.6842 53.5827 17.6605C53.7105 17.6368 53.8099 17.6179 53.881 17.6037L54.2645 19.358C54.1414 19.4053 53.9662 19.4527 53.7389 19.5C53.5116 19.5521 53.2276 19.5805 52.8866 19.5852C52.3279 19.5947 51.8071 19.4953 51.3241 19.2869C50.8412 19.0786 50.4506 18.7566 50.1523 18.321C49.854 17.8854 49.7048 17.3385 49.7048 16.6804V5.92046Z" fill="black"/>
<path d="M60.8992 19.6634C59.8244 19.6634 58.8987 19.4337 58.1222 18.9744C57.3505 18.5104 56.7539 17.8594 56.3325 17.0213C55.9158 16.1785 55.7075 15.1913 55.7075 14.0597C55.7075 12.9422 55.9158 11.9574 56.3325 11.1051C56.7539 10.2528 57.341 9.5876 58.0938 9.10938C58.8514 8.63116 59.7368 8.39205 60.7501 8.39205C61.3656 8.39205 61.9622 8.49385 62.5398 8.69744C63.1175 8.90104 63.636 9.22065 64.0952 9.65625C64.5545 10.0919 64.9167 10.6577 65.1819 11.3537C65.447 12.045 65.5796 12.8854 65.5796 13.875V14.6278H56.9077V13.0369H63.4987C63.4987 12.4782 63.385 11.9834 63.1577 11.5526C62.9305 11.117 62.6109 10.7737 62.1989 10.5227C61.7917 10.2718 61.3135 10.1463 60.7643 10.1463C60.1677 10.1463 59.6469 10.2931 59.2018 10.5866C58.7614 10.8755 58.4205 11.2543 58.179 11.723C57.9423 12.187 57.8239 12.6913 57.8239 13.2358V14.4787C57.8239 15.2079 57.9518 15.8281 58.2075 16.3395C58.4679 16.8509 58.8301 17.2415 59.2941 17.5114C59.7581 17.7765 60.3003 17.9091 60.9205 17.9091C61.323 17.9091 61.6899 17.8523 62.0214 17.7386C62.3528 17.6203 62.6393 17.4451 62.8808 17.2131C63.1222 16.9811 63.3069 16.6946 63.4347 16.3537L65.4447 16.7159C65.2837 17.3078 64.9949 17.8262 64.5782 18.2713C64.1663 18.7116 63.6478 19.0549 63.0228 19.3011C62.4025 19.5426 61.6947 19.6634 60.8992 19.6634Z" fill="black"/>
<path d="M67.8358 19.4432V8.53409H69.8884V10.267H70.002C70.2009 9.67993 70.5512 9.21828 71.0531 8.8821C71.5598 8.54119 72.1327 8.37074 72.7719 8.37074C72.9044 8.37074 73.0607 8.37547 73.2406 8.38494C73.4253 8.39441 73.5697 8.40625 73.6739 8.42046V10.4517C73.5886 10.428 73.4371 10.402 73.2193 10.3736C73.0015 10.3404 72.7837 10.3239 72.5659 10.3239C72.064 10.3239 71.6166 10.4304 71.2236 10.6435C70.8353 10.8518 70.5276 11.143 70.3003 11.517C70.073 11.8864 69.9594 12.3078 69.9594 12.7813V19.4432H67.8358Z" fill="black"/>
<path d="M75.582 19.4432V4.89773H80.7667C81.8983 4.89773 82.8358 5.10369 83.5792 5.51563C84.3226 5.92756 84.8789 6.491 85.2482 7.20597C85.6175 7.91619 85.8022 8.71638 85.8022 9.60653C85.8022 10.5014 85.6152 11.3063 85.2411 12.0213C84.8718 12.7315 84.3131 13.295 83.565 13.7116C82.8216 14.1236 81.8865 14.3295 80.7596 14.3295H77.1942V12.4688H80.5607C81.2757 12.4688 81.8557 12.3456 82.3008 12.0994C82.7459 11.8485 83.0726 11.5076 83.2809 11.0767C83.4892 10.6458 83.5934 10.1558 83.5934 9.60653C83.5934 9.05729 83.4892 8.5696 83.2809 8.14347C83.0726 7.71733 82.7435 7.38352 82.2937 7.14205C81.8486 6.90057 81.2615 6.77983 80.5323 6.77983H77.7766V19.4432H75.582Z" fill="black"/>
<path d="M88.1045 19.4432V8.53409H90.1571V10.267H90.2707C90.4696 9.67993 90.82 9.21828 91.3219 8.8821C91.8285 8.54119 92.4014 8.37074 93.0406 8.37074C93.1732 8.37074 93.3295 8.37547 93.5094 8.38494C93.694 8.39441 93.8384 8.40625 93.9426 8.42046V10.4517C93.8574 10.428 93.7059 10.402 93.4881 10.3736C93.2703 10.3404 93.0525 10.3239 92.8347 10.3239C92.3328 10.3239 91.8853 10.4304 91.4923 10.6435C91.1041 10.8518 90.7963 11.143 90.569 11.517C90.3418 11.8864 90.2281 12.3078 90.2281 12.7813V19.4432H88.1045Z" fill="black"/>
<path d="M98.7574 19.6847C98.0661 19.6847 97.4411 19.5568 96.8824 19.3011C96.3237 19.0407 95.881 18.6643 95.5543 18.1719C95.2323 17.6795 95.0713 17.0758 95.0713 16.3608C95.0713 15.7453 95.1897 15.2386 95.4264 14.8409C95.6632 14.4432 95.9828 14.1283 96.3852 13.8963C96.7877 13.6643 97.2375 13.4891 97.7347 13.3707C98.2318 13.2524 98.7384 13.1624 99.2545 13.1009C99.908 13.0251 100.438 12.9635 100.845 12.9162C101.253 12.8641 101.549 12.7813 101.733 12.6676C101.918 12.554 102.01 12.3693 102.01 12.1136V12.0639C102.01 11.4437 101.835 10.9631 101.485 10.6222C101.139 10.2813 100.623 10.1108 99.9364 10.1108C99.2214 10.1108 98.658 10.2694 98.246 10.5866C97.8388 10.8991 97.5571 11.2472 97.4008 11.6307L95.4051 11.1761C95.6419 10.5133 95.9875 9.97822 96.442 9.57102C96.9013 9.15909 97.4293 8.8608 98.0258 8.67614C98.6224 8.48674 99.2498 8.39205 99.908 8.39205C100.344 8.39205 100.805 8.44413 101.293 8.5483C101.785 8.64773 102.245 8.83239 102.671 9.10227C103.102 9.37216 103.454 9.75805 103.729 10.2599C104.004 10.7571 104.141 11.4034 104.141 12.1989V19.4432H102.067V17.9517H101.982C101.845 18.2263 101.639 18.4962 101.364 18.7614C101.089 19.0265 100.737 19.2467 100.306 19.4219C99.8748 19.5971 99.3587 19.6847 98.7574 19.6847ZM99.219 17.9801C99.8062 17.9801 100.308 17.8641 100.725 17.6321C101.146 17.4001 101.466 17.0971 101.684 16.723C101.906 16.3442 102.017 15.9394 102.017 15.5085V14.1023C101.942 14.178 101.795 14.2491 101.577 14.3153C101.364 14.3769 101.12 14.4313 100.845 14.4787C100.571 14.5213 100.303 14.5616 100.043 14.5994C99.7825 14.6326 99.5647 14.661 99.3895 14.6847C98.9776 14.7367 98.6011 14.8243 98.2602 14.9474C97.924 15.0706 97.6542 15.2481 97.4506 15.4801C97.2517 15.7074 97.1523 16.0104 97.1523 16.3892C97.1523 16.9148 97.3464 17.3125 97.7347 17.5824C98.1229 17.8475 98.6177 17.9801 99.219 17.9801Z" fill="black"/>
<path d="M111.465 19.6634C110.409 19.6634 109.5 19.4242 108.737 18.946C107.98 18.4631 107.397 17.7978 106.99 16.9503C106.583 16.1027 106.379 15.1321 106.379 14.0384C106.379 12.9304 106.588 11.9527 107.004 11.1051C107.421 10.2528 108.008 9.5876 108.766 9.10938C109.523 8.63116 110.416 8.39205 111.443 8.39205C112.272 8.39205 113.01 8.54593 113.659 8.85369C114.308 9.15672 114.831 9.58286 115.229 10.1321C115.631 10.6813 115.87 11.3229 115.946 12.0568H113.879C113.766 11.5455 113.505 11.1051 113.098 10.7358C112.696 10.3665 112.156 10.1818 111.479 10.1818C110.887 10.1818 110.368 10.3381 109.923 10.6506C109.483 10.9583 109.14 11.3987 108.894 11.9716C108.647 12.5398 108.524 13.2121 108.524 13.9886C108.524 14.7841 108.645 15.4706 108.886 16.0483C109.128 16.6259 109.469 17.0734 109.909 17.3906C110.354 17.7079 110.877 17.8665 111.479 17.8665C111.881 17.8665 112.246 17.7931 112.573 17.6463C112.904 17.4948 113.181 17.2794 113.403 17C113.631 16.7206 113.789 16.3845 113.879 15.9915H115.946C115.87 16.697 115.641 17.3267 115.257 17.8807C114.874 18.4347 114.36 18.8703 113.716 19.1875C113.077 19.5047 112.326 19.6634 111.465 19.6634Z" fill="black"/>
<path d="M123.209 8.53409V10.2386H117.251V8.53409H123.209ZM118.849 5.92046H120.972V16.2401C120.972 16.652 121.034 16.9621 121.157 17.1705C121.28 17.3741 121.439 17.5137 121.633 17.5895C121.832 17.6605 122.047 17.696 122.279 17.696C122.449 17.696 122.599 17.6842 122.726 17.6605C122.854 17.6368 122.954 17.6179 123.025 17.6037L123.408 19.358C123.285 19.4053 123.11 19.4527 122.883 19.5C122.655 19.5521 122.371 19.5805 122.03 19.5852C121.472 19.5947 120.951 19.4953 120.468 19.2869C119.985 19.0786 119.594 18.7566 119.296 18.321C118.998 17.8854 118.849 17.3385 118.849 16.6804V5.92046Z" fill="black"/>
<path d="M126.858 19.5781C126.469 19.5781 126.136 19.4408 125.856 19.1662C125.577 18.8868 125.437 18.5507 125.437 18.1577C125.437 17.7694 125.577 17.438 125.856 17.1634C126.136 16.884 126.469 16.7443 126.858 16.7443C127.246 16.7443 127.58 16.884 127.859 17.1634C128.138 17.438 128.278 17.7694 128.278 18.1577C128.278 18.4181 128.212 18.6572 128.079 18.875C127.951 19.0881 127.781 19.2585 127.568 19.3864C127.355 19.5142 127.118 19.5781 126.858 19.5781Z" fill="black"/>
<path d="M131.023 19.4432V8.53409H133.146V19.4432H131.023ZM132.095 6.85085C131.726 6.85085 131.408 6.72775 131.143 6.48153C130.883 6.23059 130.753 5.93229 130.753 5.58665C130.753 5.23627 130.883 4.93797 131.143 4.69176C131.408 4.44082 131.726 4.31534 132.095 4.31534C132.464 4.31534 132.779 4.44082 133.04 4.69176C133.305 4.93797 133.437 5.23627 133.437 5.58665C133.437 5.93229 133.305 6.23059 133.04 6.48153C132.779 6.72775 132.464 6.85085 132.095 6.85085Z" fill="black"/>
<path d="M140.498 19.6634C139.475 19.6634 138.583 19.429 137.821 18.9602C137.058 18.4915 136.466 17.8357 136.045 16.9929C135.624 16.1501 135.413 15.1652 135.413 14.0384C135.413 12.9067 135.624 11.9171 136.045 11.0696C136.466 10.2221 137.058 9.56392 137.821 9.09517C138.583 8.62642 139.475 8.39205 140.498 8.39205C141.521 8.39205 142.413 8.62642 143.176 9.09517C143.938 9.56392 144.53 10.2221 144.951 11.0696C145.373 11.9171 145.583 12.9067 145.583 14.0384C145.583 15.1652 145.373 16.1501 144.951 16.9929C144.53 17.8357 143.938 18.4915 143.176 18.9602C142.413 19.429 141.521 19.6634 140.498 19.6634ZM140.505 17.8807C141.168 17.8807 141.717 17.7055 142.153 17.3551C142.589 17.0047 142.911 16.5384 143.119 15.956C143.332 15.3736 143.438 14.732 143.438 14.0313C143.438 13.3352 143.332 12.696 143.119 12.1136C142.911 11.5265 142.589 11.0554 142.153 10.7003C141.717 10.3452 141.168 10.1676 140.505 10.1676C139.838 10.1676 139.284 10.3452 138.843 10.7003C138.408 11.0554 138.083 11.5265 137.87 12.1136C137.662 12.696 137.558 13.3352 137.558 14.0313C137.558 14.732 137.662 15.3736 137.87 15.956C138.083 16.5384 138.408 17.0047 138.843 17.3551C139.284 17.7055 139.838 17.8807 140.505 17.8807Z" fill="black"/>
</svg>
