<svg width="16" height="17" viewBox="0 0 16 17" fill="none" xmlns="http://www.w3.org/2000/svg">
<path d="M13.3333 5.83334L9.33327 2.32667C8.96659 1.9987 8.4919 1.81738 7.99994 1.81738C7.50799 1.81738 7.03329 1.9987 6.66661 2.32667L2.66661 5.83334C2.45485 6.02272 2.28587 6.25504 2.17092 6.51483C2.05597 6.77463 1.99768 7.05593 1.99994 7.34V13.1667C1.99994 13.6971 2.21065 14.2058 2.58573 14.5809C2.9608 14.956 3.46951 15.1667 3.99994 15.1667H11.9999C12.5304 15.1667 13.0391 14.956 13.4142 14.5809C13.7892 14.2058 13.9999 13.6971 13.9999 13.1667V7.33334C14.0013 7.05038 13.9425 6.77036 13.8276 6.51179C13.7127 6.25322 13.5442 6.02198 13.3333 5.83334ZM9.33327 13.8333H6.66661V10.5C6.66661 10.3232 6.73685 10.1536 6.86187 10.0286C6.98689 9.90358 7.15646 9.83334 7.33327 9.83334H8.66661C8.84342 9.83334 9.01299 9.90358 9.13801 10.0286C9.26304 10.1536 9.33327 10.3232 9.33327 10.5V13.8333ZM12.6666 13.1667C12.6666 13.3435 12.5964 13.5131 12.4713 13.6381C12.3463 13.7631 12.1768 13.8333 11.9999 13.8333H10.6666V10.5C10.6666 9.96957 10.4559 9.46086 10.0808 9.08579C9.70575 8.71072 9.19704 8.5 8.66661 8.5H7.33327C6.80284 8.5 6.29413 8.71072 5.91906 9.08579C5.54399 9.46086 5.33327 9.96957 5.33327 10.5V13.8333H3.99994C3.82313 13.8333 3.65356 13.7631 3.52854 13.6381C3.40351 13.5131 3.33327 13.3435 3.33327 13.1667V7.33334C3.33339 7.23868 3.35367 7.14514 3.39275 7.05892C3.43184 6.97271 3.48883 6.89581 3.55994 6.83334L7.55994 3.33334C7.6816 3.22646 7.838 3.16751 7.99994 3.16751C8.16188 3.16751 8.31828 3.22646 8.43994 3.33334L12.4399 6.83334C12.5111 6.89581 12.568 6.97271 12.6071 7.05892C12.6462 7.14514 12.6665 7.23868 12.6666 7.33334V13.1667Z" fill="black"/>
</svg>
