<svg width="140" height="24" viewBox="0 0 140 24" fill="none" xmlns="http://www.w3.org/2000/svg">
<rect x="8.75" y="8.75" width="6.5" height="6.5" stroke="#F97316" stroke-width="1.5"/>
<path d="M15.25 8V8.75H16H19C21.0711 8.75 22.75 7.07107 22.75 5C22.75 2.92893 21.0711 1.25 19 1.25C16.9289 1.25 15.25 2.92893 15.25 5V8Z" stroke="#F97316" stroke-width="1.5"/>
<path d="M15.25 16V15.25H16H19C21.0711 15.25 22.75 16.9289 22.75 19C22.75 21.0711 21.0711 22.75 19 22.75C16.9289 22.75 15.25 21.0711 15.25 19V16Z" stroke="#F97316" stroke-width="1.5"/>
<path d="M8.75 16V15.25H8H5C2.92893 15.25 1.25 16.9289 1.25 19C1.25 21.0711 2.92893 22.75 5 22.75C7.07107 22.75 8.75 21.0711 8.75 19V16Z" stroke="#F97316" stroke-width="1.5"/>
<path d="M8.75 8V8.75H8H5C2.92893 8.75 1.25 7.07107 1.25 5C1.25 2.92893 2.92893 1.25 5 1.25C7.07107 1.25 8.75 2.92893 8.75 5V8Z" stroke="#F97316" stroke-width="1.5"/>
<path d="M38 18.327V5.547H39.944V18.327H38Z" fill="#F97316"/>
<path d="M43.0051 18.327V8.751H44.7511L44.8231 11.307L44.5891 11.181C44.6971 10.557 44.9011 10.053 45.2011 9.669C45.5011 9.285 45.8671 9.003 46.2991 8.823C46.7311 8.631 47.1991 8.535 47.7031 8.535C48.4231 8.535 49.0171 8.697 49.4851 9.021C49.9651 9.333 50.3251 9.765 50.5651 10.317C50.8171 10.857 50.9431 11.475 50.9431 12.171V18.327H49.0351V12.747C49.0351 12.183 48.9751 11.709 48.8551 11.325C48.7351 10.941 48.5371 10.647 48.2611 10.443C47.9851 10.239 47.6251 10.137 47.1811 10.137C46.5091 10.137 45.9631 10.359 45.5431 10.803C45.1231 11.247 44.9131 11.895 44.9131 12.747V18.327H43.0051Z" fill="#F97316"/>
<path d="M56.6263 18.327C55.7143 18.327 55.0423 18.117 54.6103 17.697C54.1783 17.277 53.9623 16.623 53.9623 15.735V6.501H55.8703V15.591C55.8703 16.035 55.9663 16.341 56.1583 16.509C56.3503 16.677 56.6443 16.761 57.0403 16.761H58.4083V18.327H56.6263ZM52.5043 10.317V8.751H58.4083V10.317H52.5043Z" fill="#F97316"/>
<path d="M64.0155 18.543C63.0795 18.543 62.2695 18.339 61.5855 17.931C60.9135 17.523 60.3915 16.941 60.0195 16.185C59.6595 15.429 59.4795 14.547 59.4795 13.539C59.4795 12.531 59.6595 11.655 60.0195 10.911C60.3915 10.155 60.9135 9.573 61.5855 9.165C62.2575 8.745 63.0495 8.535 63.9615 8.535C64.8255 8.535 65.5875 8.739 66.2475 9.147C66.9075 9.543 67.4175 10.119 67.7775 10.875C68.1495 11.631 68.3355 12.543 68.3355 13.611V14.097H61.4595C61.5075 15.033 61.7535 15.735 62.1975 16.203C62.6535 16.671 63.2655 16.905 64.0335 16.905C64.5975 16.905 65.0655 16.773 65.4375 16.509C65.8095 16.245 66.0675 15.891 66.2115 15.447L68.1915 15.573C67.9395 16.461 67.4415 17.181 66.6975 17.733C65.9655 18.273 65.0715 18.543 64.0155 18.543ZM61.4595 12.657H66.3195C66.2595 11.805 66.0135 11.175 65.5815 10.767C65.1615 10.359 64.6215 10.155 63.9615 10.155C63.2775 10.155 62.7135 10.371 62.2695 10.803C61.8375 11.223 61.5675 11.841 61.4595 12.657Z" fill="#F97316"/>
<path d="M70.2688 18.327V8.751H72.0148L72.0868 11.289L71.9248 11.235C72.0568 10.371 72.3208 9.741 72.7168 9.345C73.1248 8.949 73.6708 8.751 74.3548 8.751H75.2728V10.461H74.3548C73.8748 10.461 73.4728 10.539 73.1488 10.695C72.8248 10.851 72.5788 11.091 72.4108 11.415C72.2548 11.739 72.1768 12.159 72.1768 12.675V18.327H70.2688Z" fill="#F97316"/>
<path d="M77.041 18.327V5.547H81.811C83.275 5.547 84.415 5.901 85.231 6.609C86.047 7.305 86.455 8.277 86.455 9.525C86.455 10.353 86.269 11.073 85.897 11.685C85.525 12.285 84.991 12.747 84.295 13.071C83.611 13.383 82.783 13.539 81.811 13.539H78.985V18.327H77.041ZM78.985 11.775H81.757C82.633 11.775 83.299 11.589 83.755 11.217C84.211 10.833 84.439 10.269 84.439 9.525C84.439 8.793 84.211 8.247 83.755 7.887C83.299 7.515 82.633 7.329 81.757 7.329H78.985V11.775Z" fill="#F97316"/>
<path d="M88.5149 18.327V8.751H90.2609L90.3329 11.289L90.1709 11.235C90.3029 10.371 90.5669 9.741 90.9629 9.345C91.3709 8.949 91.9169 8.751 92.6009 8.751H93.5189V10.461H92.6009C92.1209 10.461 91.7189 10.539 91.3949 10.695C91.0709 10.851 90.8249 11.091 90.6569 11.415C90.5009 11.739 90.4229 12.159 90.4229 12.675V18.327H88.5149Z" fill="#F97316"/>
<path d="M97.5953 18.543C96.5993 18.543 95.8013 18.315 95.2013 17.859C94.6133 17.403 94.3193 16.761 94.3193 15.933C94.3193 15.105 94.5653 14.463 95.0573 14.007C95.5613 13.539 96.3353 13.203 97.3793 12.999L100.673 12.369C100.673 11.625 100.499 11.073 100.151 10.713C99.8033 10.341 99.2873 10.155 98.6033 10.155C97.9913 10.155 97.5113 10.293 97.1633 10.569C96.8153 10.833 96.5753 11.229 96.4433 11.757L94.4813 11.631C94.6613 10.671 95.1053 9.915 95.8133 9.363C96.5333 8.811 97.4633 8.535 98.6033 8.535C99.8993 8.535 100.883 8.883 101.555 9.579C102.239 10.263 102.581 11.229 102.581 12.477V16.203C102.581 16.431 102.617 16.593 102.689 16.689C102.773 16.773 102.905 16.815 103.085 16.815H103.427V18.327C103.367 18.339 103.271 18.351 103.139 18.363C103.007 18.375 102.869 18.381 102.725 18.381C102.317 18.381 101.963 18.315 101.663 18.183C101.375 18.051 101.159 17.835 101.015 17.535C100.871 17.223 100.799 16.809 100.799 16.293L100.997 16.383C100.901 16.803 100.691 17.175 100.367 17.499C100.055 17.823 99.6533 18.081 99.1613 18.273C98.6813 18.453 98.1593 18.543 97.5953 18.543ZM97.9013 17.031C98.4773 17.031 98.9693 16.923 99.3773 16.707C99.7853 16.479 100.103 16.167 100.331 15.771C100.559 15.375 100.673 14.925 100.673 14.421V13.809L97.8653 14.349C97.2893 14.457 96.8813 14.631 96.6413 14.871C96.4133 15.099 96.2993 15.393 96.2993 15.753C96.2993 16.161 96.4373 16.479 96.7133 16.707C97.0013 16.923 97.3973 17.031 97.9013 17.031Z" fill="#F97316"/>
<path d="M108.91 18.543C107.998 18.543 107.2 18.339 106.516 17.931C105.832 17.523 105.304 16.941 104.932 16.185C104.56 15.429 104.374 14.547 104.374 13.539C104.374 12.531 104.56 11.655 104.932 10.911C105.304 10.155 105.832 9.573 106.516 9.165C107.2 8.745 107.998 8.535 108.91 8.535C109.69 8.535 110.38 8.673 110.98 8.949C111.592 9.213 112.084 9.603 112.456 10.119C112.84 10.635 113.086 11.265 113.194 12.009L111.196 12.117C111.1 11.493 110.848 11.019 110.44 10.695C110.032 10.359 109.522 10.191 108.91 10.191C108.106 10.191 107.476 10.491 107.02 11.091C106.576 11.679 106.354 12.495 106.354 13.539C106.354 14.583 106.576 15.405 107.02 16.005C107.476 16.593 108.106 16.887 108.91 16.887C109.522 16.887 110.032 16.719 110.44 16.383C110.848 16.035 111.1 15.513 111.196 14.817L113.194 14.925C113.086 15.657 112.84 16.293 112.456 16.833C112.084 17.373 111.592 17.793 110.98 18.093C110.38 18.393 109.69 18.543 108.91 18.543Z" fill="#F97316"/>
<path d="M118.255 18.327C117.343 18.327 116.671 18.117 116.239 17.697C115.807 17.277 115.591 16.623 115.591 15.735V6.501H117.499V15.591C117.499 16.035 117.595 16.341 117.787 16.509C117.979 16.677 118.273 16.761 118.669 16.761H120.037V18.327H118.255ZM114.133 10.317V8.751H120.037V10.317H114.133Z" fill="#F97316"/>
<path d="M121.864 18.327V16.059H124.186V18.327H121.864Z" fill="#F97316"/>
<path d="M126.29 18.327V8.751H128.198V18.327H126.29ZM126.254 7.365V5.457H128.234V7.365H126.254Z" fill="#F97316"/>
<path d="M134.662 18.543C133.75 18.543 132.952 18.339 132.268 17.931C131.584 17.523 131.056 16.941 130.684 16.185C130.312 15.429 130.126 14.547 130.126 13.539C130.126 12.519 130.312 11.637 130.684 10.893C131.056 10.149 131.584 9.573 132.268 9.165C132.952 8.745 133.75 8.535 134.662 8.535C135.574 8.535 136.372 8.745 137.056 9.165C137.74 9.573 138.268 10.149 138.64 10.893C139.012 11.637 139.198 12.519 139.198 13.539C139.198 14.547 139.012 15.429 138.64 16.185C138.268 16.941 137.74 17.523 137.056 17.931C136.372 18.339 135.574 18.543 134.662 18.543ZM134.662 16.887C135.478 16.887 136.108 16.593 136.552 16.005C136.996 15.405 137.218 14.583 137.218 13.539C137.218 12.495 136.996 11.679 136.552 11.091C136.108 10.491 135.478 10.191 134.662 10.191C133.858 10.191 133.228 10.491 132.772 11.091C132.328 11.679 132.106 12.495 132.106 13.539C132.106 14.583 132.328 15.405 132.772 16.005C133.228 16.593 133.858 16.887 134.662 16.887Z" fill="#F97316"/>
</svg>
