<svg width="16" height="16" viewBox="0 0 16 16" fill="none" xmlns="http://www.w3.org/2000/svg">
<path d="M7.66663 13.3334H3.66663C3.48982 13.3334 3.32025 13.2631 3.19522 13.1381C3.0702 13.0131 2.99996 12.8435 2.99996 12.6667V3.33337C2.99996 3.15656 3.0702 2.98699 3.19522 2.86197C3.32025 2.73695 3.48982 2.66671 3.66663 2.66671H6.99996V4.66671C6.99996 5.19714 7.21067 5.70585 7.58575 6.08092C7.96082 6.45599 8.46953 6.66671 8.99996 6.66671H11V10C11 10.1769 11.0702 10.3464 11.1952 10.4714C11.3202 10.5965 11.4898 10.6667 11.6666 10.6667C11.8434 10.6667 12.013 10.5965 12.138 10.4714C12.2631 10.3464 12.3333 10.1769 12.3333 10V6.00004C12.3333 6.00004 12.3333 6.00004 12.3333 5.96004C12.3263 5.8988 12.3129 5.83846 12.2933 5.78004V5.72004C12.2612 5.65149 12.2185 5.58848 12.1666 5.53337L8.16663 1.53337C8.11152 1.48152 8.04851 1.43876 7.97996 1.40671C7.95791 1.40285 7.93535 1.40285 7.91329 1.40671C7.84847 1.37204 7.7788 1.34732 7.70663 1.33337H3.66663C3.13619 1.33337 2.62749 1.54409 2.25241 1.91916C1.87734 2.29423 1.66663 2.80294 1.66663 3.33337V12.6667C1.66663 13.1971 1.87734 13.7058 2.25241 14.0809C2.62749 14.456 3.13619 14.6667 3.66663 14.6667H7.66663C7.84344 14.6667 8.01301 14.5965 8.13803 14.4714C8.26305 14.3464 8.33329 14.1769 8.33329 14C8.33329 13.8232 8.26305 13.6537 8.13803 13.5286C8.01301 13.4036 7.84344 13.3334 7.66663 13.3334ZM8.33329 3.60671L10.06 5.33337H8.99996C8.82315 5.33337 8.65358 5.26314 8.52856 5.13811C8.40353 5.01309 8.33329 4.84352 8.33329 4.66671V3.60671ZM4.99996 9.33337H8.99996C9.17677 9.33337 9.34634 9.26314 9.47136 9.13811C9.59639 9.01309 9.66663 8.84352 9.66663 8.66671C9.66663 8.4899 9.59639 8.32033 9.47136 8.1953C9.34634 8.07028 9.17677 8.00004 8.99996 8.00004H4.99996C4.82315 8.00004 4.65358 8.07028 4.52856 8.1953C4.40353 8.32033 4.33329 8.4899 4.33329 8.66671C4.33329 8.84352 4.40353 9.01309 4.52856 9.13811C4.65358 9.26314 4.82315 9.33337 4.99996 9.33337ZM7.66663 10.6667H4.99996C4.82315 10.6667 4.65358 10.7369 4.52856 10.862C4.40353 10.987 4.33329 11.1566 4.33329 11.3334C4.33329 11.5102 4.40353 11.6798 4.52856 11.8048C4.65358 11.9298 4.82315 12 4.99996 12H7.66663C7.84344 12 8.01301 11.9298 8.13803 11.8048C8.26305 11.6798 8.33329 11.5102 8.33329 11.3334C8.33329 11.1566 8.26305 10.987 8.13803 10.862C8.01301 10.7369 7.84344 10.6667 7.66663 10.6667ZM4.99996 6.66671H5.66663C5.84344 6.66671 6.01301 6.59647 6.13803 6.47145C6.26305 6.34642 6.33329 6.17685 6.33329 6.00004C6.33329 5.82323 6.26305 5.65366 6.13803 5.52864C6.01301 5.40361 5.84344 5.33337 5.66663 5.33337H4.99996C4.82315 5.33337 4.65358 5.40361 4.52856 5.52864C4.40353 5.65366 4.33329 5.82323 4.33329 6.00004C4.33329 6.17685 4.40353 6.34642 4.52856 6.47145C4.65358 6.59647 4.82315 6.66671 4.99996 6.66671ZM14.14 10.86C14.078 10.7976 14.0043 10.748 13.923 10.7141C13.8418 10.6803 13.7546 10.6628 13.6666 10.6628C13.5786 10.6628 13.4915 10.6803 13.4102 10.7141C13.329 10.748 13.2553 10.7976 13.1933 10.86L11 13.06L10.14 12.1934C10.0778 12.1312 10.004 12.0819 9.92279 12.0483C9.84158 12.0146 9.75453 11.9973 9.66663 11.9973C9.57872 11.9973 9.49167 12.0146 9.41046 12.0483C9.32925 12.0819 9.25545 12.1312 9.19329 12.1934C9.13113 12.2555 9.08183 12.3293 9.04819 12.4105C9.01455 12.4918 8.99723 12.5788 8.99723 12.6667C8.99723 12.7546 9.01455 12.8417 9.04819 12.9229C9.08183 13.0041 9.13113 13.0779 9.19329 13.14L10.5266 14.4734C10.5886 14.5359 10.6623 14.5855 10.7436 14.6193C10.8248 14.6531 10.912 14.6706 11 14.6706C11.088 14.6706 11.1751 14.6531 11.2563 14.6193C11.3376 14.5855 11.4113 14.5359 11.4733 14.4734L14.14 11.8067C14.2024 11.7447 14.252 11.671 14.2859 11.5898C14.3197 11.5085 14.3372 11.4214 14.3372 11.3334C14.3372 11.2454 14.3197 11.1582 14.2859 11.077C14.252 10.9958 14.2024 10.922 14.14 10.86Z" fill="white"/>
</svg>
