<svg width="16" height="16" viewBox="0 0 16 16" fill="none" xmlns="http://www.w3.org/2000/svg">
<path d="M14.1133 1.37337C13.6354 1.29106 13.1515 1.24869 12.6666 1.24671C11.0122 1.24535 9.3923 1.71976 7.99998 2.61337C6.60407 1.73149 4.98441 1.26873 3.33331 1.28004C2.84841 1.28203 2.36451 1.3244 1.88664 1.40671C1.73011 1.43369 1.58836 1.51568 1.48692 1.6379C1.38547 1.76013 1.331 1.91455 1.33331 2.07337V10.0734C1.33188 10.1713 1.35206 10.2684 1.39241 10.3577C1.43276 10.4469 1.49229 10.5262 1.56676 10.5899C1.64123 10.6535 1.72881 10.7 1.82328 10.7259C1.91774 10.7519 2.01677 10.7567 2.11331 10.74C3.06865 10.5746 4.04744 10.6021 4.99202 10.8208C5.9366 11.0394 6.82786 11.4449 7.61331 12.0134L7.69331 12.06H7.76664C7.84058 12.0908 7.91988 12.1067 7.99998 12.1067C8.08007 12.1067 8.15937 12.0908 8.23331 12.06H8.30664L8.38664 12.0134C9.16661 11.4322 10.0553 11.0136 11.0001 10.7823C11.9448 10.551 12.9264 10.5117 13.8866 10.6667C13.9832 10.6834 14.0822 10.6786 14.1767 10.6526C14.2711 10.6266 14.3587 10.5802 14.4332 10.5165C14.5077 10.4529 14.5672 10.3736 14.6075 10.2843C14.6479 10.1951 14.6681 10.098 14.6666 10V2.00004C14.6597 1.84814 14.601 1.70318 14.5004 1.5892C14.3998 1.47522 14.2632 1.39906 14.1133 1.37337ZM7.33331 10.2334C6.0999 9.5845 4.72699 9.24585 3.33331 9.24671C3.11331 9.24671 2.89331 9.24671 2.66664 9.24671V2.58004C2.88868 2.56724 3.11127 2.56724 3.33331 2.58004C4.75557 2.57847 6.14678 2.99583 7.33331 3.78004V10.2334ZM13.3333 9.27337C13.1066 9.27337 12.8866 9.27337 12.6666 9.27337C11.273 9.27251 9.90005 9.61117 8.66664 10.26V3.78004C9.85317 2.99583 11.2444 2.57847 12.6666 2.58004C12.8887 2.56724 13.1113 2.56724 13.3333 2.58004V9.27337ZM14.1133 12.04C13.6354 11.9577 13.1515 11.9154 12.6666 11.9134C11.0122 11.912 9.3923 12.3864 7.99998 13.28C6.60765 12.3864 4.98773 11.912 3.33331 11.9134C2.84841 11.9154 2.36451 11.9577 1.88664 12.04C1.79986 12.0538 1.71666 12.0846 1.64182 12.1306C1.56698 12.1767 1.50198 12.2371 1.45055 12.3083C1.39913 12.3796 1.3623 12.4603 1.34218 12.5458C1.32206 12.6313 1.31904 12.72 1.33331 12.8067C1.36719 12.9798 1.4683 13.1325 1.6145 13.2312C1.7607 13.3299 1.94007 13.3666 2.11331 13.3334C3.06865 13.168 4.04744 13.1954 4.99202 13.4141C5.9366 13.6328 6.82786 14.0383 7.61331 14.6067C7.72622 14.6871 7.86137 14.7303 7.99998 14.7303C8.13858 14.7303 8.27373 14.6871 8.38664 14.6067C9.17209 14.0383 10.0634 13.6328 11.0079 13.4141C11.9525 13.1954 12.9313 13.168 13.8866 13.3334C14.0599 13.3666 14.2392 13.3299 14.3854 13.2312C14.5316 13.1325 14.6328 12.9798 14.6666 12.8067C14.6809 12.72 14.6779 12.6313 14.6578 12.5458C14.6377 12.4603 14.6008 12.3796 14.5494 12.3083C14.498 12.2371 14.433 12.1767 14.3581 12.1306C14.2833 12.0846 14.2001 12.0538 14.1133 12.04Z" fill="black"/>
</svg>
