<svg width="16" height="16" viewBox="0 0 16 16" fill="none" xmlns="http://www.w3.org/2000/svg">
<path d="M9.99996 9.33337H5.99996C5.82315 9.33337 5.65358 9.40361 5.52856 9.52864C5.40353 9.65366 5.33329 9.82323 5.33329 10C5.33329 10.1769 5.40353 10.3464 5.52856 10.4714C5.65358 10.5965 5.82315 10.6667 5.99996 10.6667H9.99996C10.1768 10.6667 10.3463 10.5965 10.4714 10.4714C10.5964 10.3464 10.6666 10.1769 10.6666 10C10.6666 9.82323 10.5964 9.65366 10.4714 9.52864C10.3463 9.40361 10.1768 9.33337 9.99996 9.33337ZM9.99996 6.66671H7.33329C7.15648 6.66671 6.98691 6.73695 6.86189 6.86197C6.73686 6.98699 6.66663 7.15656 6.66663 7.33337C6.66663 7.51018 6.73686 7.67975 6.86189 7.80478C6.98691 7.9298 7.15648 8.00004 7.33329 8.00004H9.99996C10.1768 8.00004 10.3463 7.9298 10.4714 7.80478C10.5964 7.67975 10.6666 7.51018 10.6666 7.33337C10.6666 7.15656 10.5964 6.98699 10.4714 6.86197C10.3463 6.73695 10.1768 6.66671 9.99996 6.66671ZM11.3333 2.66671H10.5466C10.4091 2.27767 10.1546 1.94071 9.818 1.702C9.48143 1.46329 9.07926 1.33453 8.66663 1.33337H7.33329C6.92066 1.33453 6.51849 1.46329 6.18192 1.702C5.84534 1.94071 5.59084 2.27767 5.45329 2.66671H4.66663C4.13619 2.66671 3.62749 2.87742 3.25241 3.25249C2.87734 3.62757 2.66663 4.13627 2.66663 4.66671V12.6667C2.66663 13.1971 2.87734 13.7058 3.25241 14.0809C3.62749 14.456 4.13619 14.6667 4.66663 14.6667H11.3333C11.8637 14.6667 12.3724 14.456 12.7475 14.0809C13.1226 13.7058 13.3333 13.1971 13.3333 12.6667V4.66671C13.3333 4.13627 13.1226 3.62757 12.7475 3.25249C12.3724 2.87742 11.8637 2.66671 11.3333 2.66671ZM6.66663 3.33337C6.66663 3.15656 6.73686 2.98699 6.86189 2.86197C6.98691 2.73695 7.15648 2.66671 7.33329 2.66671H8.66663C8.84344 2.66671 9.01301 2.73695 9.13803 2.86197C9.26305 2.98699 9.33329 3.15656 9.33329 3.33337V4.00004H6.66663V3.33337ZM12 12.6667C12 12.8435 11.9297 13.0131 11.8047 13.1381C11.6797 13.2631 11.5101 13.3334 11.3333 13.3334H4.66663C4.48982 13.3334 4.32025 13.2631 4.19522 13.1381C4.0702 13.0131 3.99996 12.8435 3.99996 12.6667V4.66671C3.99996 4.4899 4.0702 4.32033 4.19522 4.1953C4.32025 4.07028 4.48982 4.00004 4.66663 4.00004H5.33329V4.66671C5.33329 4.84352 5.40353 5.01309 5.52856 5.13811C5.65358 5.26314 5.82315 5.33337 5.99996 5.33337H9.99996C10.1768 5.33337 10.3463 5.26314 10.4714 5.13811C10.5964 5.01309 10.6666 4.84352 10.6666 4.66671V4.00004H11.3333C11.5101 4.00004 11.6797 4.07028 11.8047 4.1953C11.9297 4.32033 12 4.4899 12 4.66671V12.6667Z" fill="white"/>
</svg>
